<?xml version="1.0" encoding="UTF-8"?>
<svg id="Layer_1" xmlns="http://www.w3.org/2000/svg" version="1.1" viewBox="0 0 350 300">
  <!-- Generator: Adobe Illustrator 30.4.0, SVG Export Plug-In . SVG Version: 2.1.4 Build 226)  -->
  <defs>
    <style>
      .st0, .st1 {
        fill: aqua;
      }

      .st2 {
        fill: #10048c;
      }

      .st2, .st1, .st3 {
        display: none;
      }

      .st4 {
        fill: #14cad3;
      }

      .st5 {
        fill: #01ffff;
      }

      .st6 {
        fill: #105bae;
      }

      .st7 {
        fill: #2392e7;
      }

      .st8 {
        fill: #04a5ce;
      }

      .st9 {
        fill: #4280ff;
      }

      .st10 {
        fill: #1ee5d5;
      }
    </style>
  </defs>
  <rect class="st2" x="-75" y="-55.93" width="500" height="500"/>
  <g>
    <path class="st5" d="M307.47,188.37c-.17-1.49-.45-2.97-.47-4.46-.07-5.49-1.27-10.78-2.64-16.06-1.34-5.18-3.29-10.11-5.5-14.97-3.85-8.47-9.08-16.03-15.27-22.91-6.17-6.86-13.42-12.46-21.35-17.17-4.02-2.39-8.21-4.45-12.57-6.14-3-1.17-6.05-2.23-9.18-3.04-4.41-1.14-8.87-1.98-13.36-2.65-2.82-.42-2.81-.48-3.16-3.26-.71-5.65-1.97-11.18-3.65-16.61-1.38-4.47-3.15-8.78-5.24-12.97-2.65-5.33-5.9-10.27-9.53-14.98-3.78-4.9-8.02-9.36-12.67-13.44-.67-.58-1.4-.86-2.3-.84-1.56.03-3.12-.02-4.68,0-.91.01-1.32-.36-1.29-1.28.03-1.02-.03-2.04,0-3.06.03-.79-.25-1.4-.91-1.83-1.45-.94-2.87-1.96-4.38-2.8-3.28-1.85-6.67-3.51-10.15-4.94-2.48-1.02-4.93-2.22-7.51-2.91-3.97-1.07-7.9-2.26-12-2.92-4.97-.8-9.96-1.33-14.96-1.47-5.68-.16-11.32.68-16.95,1.58-5.85.93-11.44,2.61-16.88,4.79-8.27,3.31-15.91,7.74-22.95,13.25-4.84,3.79-9.15,8.1-13.11,12.75-3.53,4.14-6.64,8.59-9.34,13.36-2.4,4.24-4.54,8.57-6.21,13.12-1.61,4.38-2.88,8.85-3.94,13.4-1.08,4.63-1.62,9.3-1.89,14.01-.23,4.07-.07,8.15-.05,12.23.04,7.74-.16,15.47-.09,23.21.08,8.52-.02,17.04-.03,25.55-.01,18.36-.07,76.54-.07,94.9,0,2.7-.12,5.39-.23,8.09-.07,1.7.18,1.86,1.84,1.9,1.32.03,2.64.03,3.96.03,7.03,0,14.07.01,21.11.01l.04-70.5h0c0-31.37.02-62.75,0-94.12,0-4.09.62-8.07,1.51-12.05,1.03-4.59,2.71-8.93,4.65-13.18,1.65-3.62,3.96-6.83,6.19-10.1,3.14-4.6,7.01-8.49,11.33-11.92,3.23-2.57,6.63-4.98,10.34-6.8,4.72-2.32,9.56-4.35,14.8-5.4,4.17-.84,8.29-1.67,12.56-1.61,3.12.04,6.28-.24,9.35.15,4.85.62,9.67,1.54,14.33,3.15,6.06,2.09,11.72,4.92,16.83,8.76,5.78,4.33,10.86,9.35,14.89,15.44,4.81,7.3,8.05,15.19,10,23.67,1.56,6.79.9,13.72,1.33,20.58.11,1.74-.29,3.57-.25,5.37.03,1.31.25,2.62.28,3.93.05,1.82,0,1.84,1.9,1.84,5.64,0,11.28-.03,16.92.03,2.63.03,5.29.06,7.89.43,5.88.82,11.62,2.28,17.12,4.54,7.17,2.95,13.51,7.29,19.12,12.57,4.59,4.32,8.47,9.31,11.47,14.89,3.47,6.46,6.06,13.2,7.23,20.53,1.01,6.33,1.19,12.63.47,18.96-.34,2.96-.86,5.93-1.64,8.8-1.02,3.74-2.42,7.36-4.11,10.89-3.64,7.61-8.52,14.22-14.81,19.87-4.54,4.08-9.56,7.39-15,10.08-4.18,2.07-8.57,3.58-13.14,4.61-4.69,1.06-9.42,1.65-14.23,1.65-28.09-.03-56.18-.04-84.26-.05h0c-18.37,0-36.73-.01-55.09-.02-10.92,0-21.85-.02-32.77-.02-2.15,0-2.2.05-2.21,2.23,0,3.36-.1,6.72.03,10.08.08,2.03,0,4.05.12,6.07.07,1.2.2,2.38-.03,3.57-.22,1.13-.18,2.28-.11,3.41.07,1.27.65,1.75,1.88,1.5.96-.19,1.91-.18,2.86-.18,56.96.04,113.91.08,170.87.11,4.92,0,9.83-.39,14.66-1.36,7.47-1.5,14.66-3.86,21.61-7.05,7.3-3.34,13.94-7.67,20.03-12.82,8.28-7.01,15.24-15.13,20.56-24.66,2.14-3.82,4.05-7.72,5.71-11.76,1.23-2.99,2.24-6.06,3.13-9.16,1.1-3.86,1.85-7.81,2.36-11.78.57-4.45.8-8.93.99-13.42.02-.41-.12-.83-.16-1.24Z"/>
    <path class="st5" d="M228.28,228.36c3.73-1.25,7.29-2.8,10.46-5.04,5.08-3.58,9.24-8.08,12.27-13.59,2.4-4.36,4.03-8.97,4.65-13.87.85-6.77-.14-13.39-2.66-19.71-1.04-2.6-2.55-5.01-4.18-7.3-2.64-3.74-5.85-6.92-9.59-9.61-6.69-4.8-14.16-7.3-22.33-7.33-23.36-.07-46.72-.07-70.09-.06v26.83c1.32,0,2.66-.01,3.99-.02,17.58-.06,35.17-.03,52.75,0,4.74,0,9.47.09,14.21.21,4.45.11,7.77,2.13,9.88,6.07,1.41,2.63,1.49,5.38,1.25,8.35-.38,4.79-5.14,9.35-9.95,9.85-1.56.16-3.11.23-4.67.23-25.14.05-50.28-.13-75.42.19-4.96.06-9.95-.12-14.92-.25-3.89-.1-7.77.14-11.66.07-6.51-.11-10.96-.1-17.48-.08v26.76c40.08.02,78.11.04,118.21.08,5.17,0,10.27-.11,15.27-1.78Z"/>
    <path class="st6" d="M170.72,95.25c-1.7-4.9-4.4-9.29-7.95-13.11-4.99-5.37-10.95-9.18-17.96-11.39-1.62-.51-3.29-.59-4.9-1.05-3.36-.96-6.84-.82-10.19-.39-4.44.58-8.79,1.79-12.84,3.88-9.66,4.99-16.35,12.55-19.9,22.84-1.45,4.2-2.23,8.51-2.11,13,.15,5.52.02,11.04.02,16.56-.02,17.04-.08,79.21-.09,96.25,0,1.75.09,1.76,1.86,1.76,6.9.01,13.8-.05,20.7.11,1.34.03,2.68.04,4.02.05l.05-83.05h.03c0-9.33,0-18.67.01-28,0-1.14-.13-2.28-.16-3.41-.11-3.5.55-6.8,3-9.51,2.23-2.46,4.97-3.89,8.32-4.12,1.93-.13,3.93-.05,5.69.59,2.99,1.09,5.3,3.08,6.72,6.11.95,2.03,1.31,4.08,1.31,6.25,0,5.34-.04,62.3-.05,67.64,0,2.21.12,2.36,2.32,2.36,7.44.01,14.88.02,22.33.01,1.97,0,1.99-.02,1.99-2.03.01-6-.03-63.62.06-69.62.06-4.09-.95-7.98-2.26-11.75Z"/>
    <path class="st6" d="M180.52,30.62s10.39,6.38,16.43,12.87l-6.04,5.76-11.52-9.32,1.13-9.31Z"/>
    <g>
      <path class="st10" d="M177.81,254.9c-14.92,0-29.85-.02-44.77-.03h0c-18.37,0-36.73-.01-55.09-.02-2.68,0-5.36,0-8.04,0l.03-55.48h0c0-31.37.02-62.75,0-94.12,0-4.09.62-8.07,1.51-12.05,1.03-4.59,2.71-8.93,4.65-13.18,1.65-3.62,3.96-6.83,6.19-10.1,3.14-4.6,7.01-8.49,11.33-11.92,3.23-2.57,6.63-4.98,10.34-6.8,4.72-2.32,9.56-4.35,14.8-5.4,4.17-.84,8.29-1.67,12.56-1.61,3.12.04,6.28-.24,9.35.15,4.85.62,9.67,1.54,14.33,3.15,6.06,2.09,11.72,4.92,16.83,8.76,5.78,4.33,10.86,9.35,14.89,15.44,4.81,7.3,8.05,15.2,10,23.67,1.56,6.79.9,13.72,1.33,20.58.11,1.74-.29,3.57-.25,5.37.03,1.31.25,2.62.28,3.93.05,1.82,0,1.84,1.9,1.84,5.64,0,11.28-.03,16.92.03,2.63.03,5.29.06,7.89.43,5.88.82,11.62,2.28,17.12,4.54,7.17,2.95,13.51,7.29,19.12,12.57,4.59,4.32,8.47,9.31,11.47,14.89,3.47,6.46,6.06,13.2,7.23,20.53.85,5.28,1.1,10.53.75,15.79l26.33-15.14c-.38-4.36-1.36-8.62-2.46-12.87-1.34-5.18-3.29-10.11-5.5-14.97-3.85-8.47-9.08-16.03-15.27-22.91-6.17-6.86-13.42-12.46-21.35-17.17-4.02-2.39-8.21-4.45-12.57-6.14-3-1.17-6.05-2.23-9.18-3.04-4.41-1.14-8.87-1.98-13.36-2.65-2.82-.42-2.81-.48-3.16-3.26-.71-5.65-1.97-11.18-3.65-16.61-1.38-4.47-3.15-8.78-5.24-12.97-2.65-5.33-5.9-10.27-9.53-14.98-3.78-4.9-8.02-9.36-12.67-13.44-.67-.58-1.4-.86-2.3-.84-1.56.03-3.12-.02-4.68,0-.91.01-1.32-.36-1.29-1.28.03-1.02-.03-2.04,0-3.06.03-.79-.25-1.4-.91-1.83-1.45-.94-2.87-1.96-4.38-2.8-3.28-1.85-6.67-3.51-10.15-4.94-2.48-1.02-4.93-2.22-7.51-2.91-3.97-1.07-7.9-2.26-12-2.92-4.97-.8-9.96-1.33-14.96-1.47-5.68-.16-11.32.68-16.95,1.58-5.85.93-11.44,2.61-16.88,4.79-8.27,3.31-15.91,7.74-22.95,13.26-4.84,3.79-9.15,8.1-13.11,12.75-3.53,4.14-6.64,8.59-9.34,13.36-2.4,4.24-4.54,8.57-6.21,13.12-1.61,4.38-2.88,8.85-3.94,13.4-1.08,4.63-1.62,9.3-1.89,14.01-.23,4.07-.07,8.15-.05,12.23.04,7.74-.16,15.47-.09,23.21.08,8.52-.02,17.04-.03,25.55-.01,17.03-.07,68.3-.07,90.29-.22.3-.24.84-.24,1.84,0,3.36-.1,6.72.03,10.08,0,.09,0,.18,0,.28,0,.17-.01.33-.02.5-.02.48,0,.83.05,1.1.01,1.4,0,2.8.08,4.19.07,1.2.2,2.38-.03,3.57-.22,1.13-.18,2.28-.11,3.41.07,1.27.65,1.75,1.88,1.5.96-.19,1.91-.18,2.86-.18,27.91.02,55.81.03,83.72.05l46.37-26.66Z"/>
      <path class="st10" d="M247.77,214.68c1.19-1.55,2.28-3.19,3.24-4.94,2.4-4.36,4.03-8.97,4.65-13.87.85-6.77-.14-13.39-2.66-19.71-1.04-2.6-2.55-5.01-4.18-7.3-2.64-3.74-5.85-6.92-9.59-9.61-6.69-4.8-14.16-7.3-22.33-7.33-23.36-.07-46.72-.07-70.09-.06v26.83c1.32,0,2.66-.01,3.99-.02,17.58-.06,35.17-.03,52.75,0,4.74,0,9.47.09,14.21.21,4.45.11,7.77,2.13,9.88,6.07,1.41,2.63,1.49,5.38,1.25,8.35-.38,4.79-5.14,9.35-9.95,9.85-1.56.16-3.11.23-4.67.23-25.14.05-50.28-.13-75.42.19-4.96.06-9.95-.12-14.92-.25-3.89-.1-7.77.14-11.66.07-6.51-.11-10.96-.1-17.48-.08v26.76c40.08.02,78.11.04,118.21.08,2.85,0,5.67-.04,8.47-.35l26.28-15.11Z"/>
      <path class="st10" d="M170.72,95.25c-1.7-4.9-4.4-9.29-7.95-13.11-4.99-5.37-10.95-9.18-17.96-11.39-1.62-.51-3.29-.59-4.9-1.05-3.36-.96-6.84-.82-10.19-.39-4.44.58-8.79,1.79-12.84,3.88-9.66,4.99-16.35,12.55-19.9,22.84-1.45,4.2-2.23,8.51-2.11,13,.15,5.52.02,11.04.02,16.56-.02,17.04-.08,79.21-.09,96.25,0,1.75.09,1.76,1.86,1.76,6.9.01,13.8-.05,20.7.11,1.34.03,2.68.04,4.02.05l.05-83.05h.03c0-9.33,0-18.67.01-28,0-1.14-.13-2.28-.16-3.41-.11-3.5.55-6.8,3-9.51,2.23-2.46,4.97-3.89,8.32-4.12,1.93-.13,3.93-.05,5.69.59,2.99,1.09,5.3,3.08,6.72,6.11.95,2.03,1.31,4.08,1.31,6.25,0,5.34-.04,62.3-.05,67.64,0,2.21.12,2.36,2.32,2.36,7.44.01,14.88.02,22.33.01,1.97,0,1.99-.02,1.99-2.03.01-6-.03-63.62.06-69.62.06-4.09-.95-7.98-2.26-11.75Z"/>
      <path class="st10" d="M180.52,30.62s10.39,6.38,16.43,12.87l-6.04,5.76-11.52-9.32,1.13-9.31Z"/>
    </g>
    <g>
      <path class="st4" d="M43.03,269.01c0,.74,0,1.48.02,2.22l28.49-16.38c-.55,0-1.1,0-1.64,0l.03-55.48h0c0-31.37.02-62.75,0-94.12,0-4.09.62-8.07,1.51-12.05,1.03-4.59,2.71-8.93,4.65-13.18,1.65-3.62,3.96-6.83,6.19-10.1,3.14-4.6,7.01-8.49,11.33-11.92,3.23-2.57,6.63-4.98,10.34-6.8,4.72-2.32,9.56-4.35,14.8-5.4,4.17-.84,8.29-1.67,12.56-1.61,3.12.04,6.28-.24,9.35.15,4.85.62,9.67,1.54,14.33,3.15,6.06,2.09,11.72,4.92,16.83,8.76,5.78,4.33,10.86,9.35,14.89,15.44,4.81,7.3,8.05,15.2,10,23.67,1.56,6.79.9,13.72,1.33,20.58.11,1.74-.29,3.57-.25,5.37.03,1.31.25,2.62.28,3.93.05,1.82,0,1.84,1.9,1.84,5.64,0,11.28-.03,16.92.03,2.63.03,5.29.06,7.89.43,5.88.82,11.62,2.28,17.12,4.54,7.17,2.95,13.51,7.29,19.12,12.57.27.26.54.52.8.79l23.46-13.49c-.57-.66-1.13-1.32-1.72-1.97-6.17-6.86-13.42-12.46-21.35-17.17-4.02-2.39-8.21-4.45-12.57-6.14-3-1.17-6.05-2.23-9.18-3.04-4.41-1.14-8.87-1.98-13.36-2.65-2.82-.42-2.81-.48-3.16-3.26-.71-5.65-1.97-11.18-3.65-16.61-1.38-4.47-3.15-8.78-5.24-12.97-2.65-5.33-5.9-10.27-9.53-14.98-3.78-4.9-8.02-9.36-12.67-13.44-.67-.58-1.4-.86-2.3-.84-1.56.03-3.12-.02-4.68,0-.91.01-1.32-.36-1.29-1.28.03-1.02-.03-2.04,0-3.06.03-.79-.25-1.4-.91-1.83-1.45-.94-2.87-1.96-4.38-2.8-3.28-1.85-6.67-3.51-10.15-4.94-2.48-1.02-4.93-2.22-7.51-2.91-3.97-1.07-7.9-2.26-12-2.92-4.97-.8-9.96-1.33-14.96-1.47-5.68-.16-11.32.68-16.95,1.58-5.85.93-11.44,2.61-16.88,4.79-8.27,3.31-15.91,7.74-22.95,13.26-4.84,3.79-9.15,8.1-13.11,12.75-3.53,4.14-6.64,8.59-9.34,13.36-2.4,4.24-4.54,8.57-6.21,13.12-1.61,4.38-2.88,8.85-3.94,13.4-1.08,4.63-1.62,9.3-1.89,14.01-.23,4.07-.07,8.15-.05,12.23.04,7.74-.16,15.47-.09,23.21.08,8.52-.02,17.04-.03,25.55-.01,17.03-.07,68.3-.07,90.29-.22.3-.24.84-.24,1.84,0,3.36-.1,6.72.03,10.08,0,.09,0,.18,0,.28,0,.17-.01.33-.02.5-.02.48,0,.83.05,1.1Z"/>
      <path class="st4" d="M150.81,178.65c17.58-.06,35.17-.03,52.75,0,.17,0,.33,0,.5,0l34.53-19.85c-6.52-4.51-13.78-6.88-21.69-6.9-23.36-.07-46.72-.07-70.09-.06v26.83c1.32,0,2.66-.01,3.99-.02Z"/>
      <path class="st4" d="M161.04,203.39c-7.39.03-14.78.07-22.18.17-4.96.06-9.95-.12-14.92-.25-3.89-.1-7.77.14-11.66.07-6.51-.11-10.96-.1-17.48-.08v26.76c6.66,0,13.26,0,19.83.01l46.4-26.68Z"/>
      <path class="st4" d="M170.72,95.25c-1.7-4.9-4.4-9.29-7.95-13.11-4.99-5.37-10.95-9.18-17.96-11.39-1.62-.51-3.29-.59-4.9-1.05-3.36-.96-6.84-.82-10.19-.39-4.44.58-8.79,1.79-12.84,3.88-9.66,4.99-16.35,12.55-19.9,22.84-1.45,4.2-2.23,8.51-2.11,13,.15,5.52.02,11.04.02,16.56-.02,17.04-.08,79.21-.09,96.25,0,1.75.09,1.76,1.86,1.76,6.9.01,13.8-.05,20.7.11,1.34.03,2.68.04,4.02.05l.05-83.05h.03c0-9.33,0-18.67.01-28,0-1.14-.13-2.28-.16-3.41-.11-3.5.55-6.8,3-9.51,2.23-2.46,4.97-3.89,8.32-4.12,1.93-.13,3.93-.05,5.69.59,2.99,1.09,5.3,3.08,6.72,6.11.95,2.03,1.31,4.08,1.31,6.25,0,5.34-.04,62.3-.05,67.64,0,2.21.12,2.36,2.32,2.36,7.44.01,14.88.02,22.33.01,1.97,0,1.99-.02,1.99-2.03.01-6-.03-63.62.06-69.62.06-4.09-.95-7.98-2.26-11.75Z"/>
      <path class="st4" d="M180.52,30.62s10.39,6.38,16.43,12.87l-6.04,5.76-11.52-9.32,1.13-9.31Z"/>
    </g>
    <g>
      <path class="st8" d="M69.94,181.94c0-25.57.02-51.13,0-76.7,0-4.09.62-8.07,1.51-12.05,1.03-4.59,2.71-8.93,4.65-13.18,1.65-3.62,3.96-6.83,6.19-10.1,3.14-4.6,7.01-8.49,11.33-11.92,3.23-2.57,6.63-4.98,10.34-6.8,4.72-2.32,9.56-4.35,14.8-5.4,4.17-.84,8.29-1.67,12.56-1.61,3.12.04,6.28-.24,9.35.15,4.85.62,9.67,1.54,14.33,3.15,6.06,2.09,11.72,4.92,16.83,8.76,5.78,4.33,10.86,9.35,14.89,15.44,4.81,7.3,8.05,15.19,10,23.67,1.56,6.79.9,13.72,1.33,20.58.11,1.74-.29,3.57-.25,5.37.03,1.31.25,2.62.28,3.93.05,1.82,0,1.84,1.9,1.84,5.64,0,11.28-.03,16.92.03,2.63.03,5.29.06,7.89.43,3.46.49,6.88,1.2,10.23,2.16l35.69-11.29c-2.72-2-5.55-3.86-8.48-5.59-4.02-2.39-8.21-4.45-12.57-6.14-3-1.17-6.05-2.23-9.18-3.04-4.41-1.14-8.87-1.98-13.36-2.65-2.82-.42-2.81-.48-3.16-3.25-.71-5.65-1.97-11.18-3.65-16.61-1.38-4.47-3.15-8.78-5.24-12.97-2.65-5.33-5.9-10.27-9.53-14.98-3.78-4.9-8.02-9.36-12.67-13.44-.67-.58-1.4-.86-2.3-.84-1.56.03-3.12-.02-4.68,0-.91.01-1.32-.36-1.29-1.28.03-1.02-.03-2.04,0-3.06.03-.79-.25-1.4-.91-1.83-1.45-.94-2.87-1.96-4.38-2.8-3.28-1.85-6.67-3.51-10.15-4.94-2.48-1.02-4.93-2.22-7.51-2.91-3.97-1.07-7.9-2.26-12-2.92-4.97-.8-9.96-1.33-14.96-1.47-5.68-.16-11.32.68-16.95,1.58-5.85.93-11.44,2.61-16.88,4.79-8.27,3.31-15.91,7.74-22.95,13.25-4.84,3.79-9.15,8.1-13.11,12.75-3.53,4.14-6.64,8.59-9.34,13.36-2.4,4.24-4.54,8.57-6.21,13.12-1.61,4.38-2.88,8.85-3.94,13.4-1.08,4.63-1.62,9.3-1.89,14.01-.23,4.07-.07,8.15-.05,12.23.04,7.74-.16,15.47-.09,23.21.08,8.52-.02,17.04-.03,25.55,0,5.56-.01,14.8-.02,25.46l26.69-8.45Z"/>
      <path class="st8" d="M165.03,151.84c-6.07,0-12.14,0-18.22,0v5.77s18.22-5.77,18.22-5.77Z"/>
      <path class="st8" d="M121.41,165.65v-24.92s.04,0,.04,0c0-9.33,0-18.67.01-28,0-1.14-.13-2.28-.16-3.41-.11-3.5.55-6.8,3-9.51,2.23-2.46,4.97-3.89,8.32-4.12,1.93-.13,3.93-.05,5.69.59,2.99,1.09,5.3,3.08,6.72,6.11.95,2.03,1.31,4.08,1.31,6.25,0,3.57-.01,30.26-.03,49.13l26.62-8.43c0-18.06,0-38.87.06-42.34.06-4.09-.95-7.98-2.26-11.75-1.7-4.9-4.4-9.29-7.95-13.11-4.99-5.37-10.95-9.18-17.96-11.39-1.62-.51-3.29-.59-4.9-1.05-3.36-.96-6.84-.82-10.19-.39-4.44.58-8.79,1.79-12.84,3.88-9.66,4.99-16.35,12.55-19.9,22.84-1.45,4.2-2.23,8.51-2.11,13,.15,5.52.02,11.04.02,16.56-.01,8.57-.03,28.55-.05,48.46l26.57-8.41Z"/>
      <path class="st8" d="M180.52,30.62s10.39,6.38,16.43,12.87l-6.04,5.76-11.52-9.32,1.13-9.31Z"/>
    </g>
    <g>
      <path class="st7" d="M69.94,135.6c0-10.12,0-20.24,0-30.36,0-4.09.62-8.07,1.51-12.05,1.03-4.59,2.71-8.93,4.65-13.18,1.65-3.62,3.96-6.83,6.19-10.1,3.14-4.6,7.01-8.49,11.33-11.92,3.23-2.57,6.63-4.98,10.34-6.8,4.72-2.32,9.56-4.35,14.8-5.4,4.17-.84,8.29-1.67,12.56-1.61,3.12.04,6.28-.24,9.35.15,4.85.62,9.67,1.54,14.33,3.15,6.06,2.09,11.72,4.92,16.83,8.76,5.78,4.33,10.86,9.35,14.89,15.44,3.87,5.87,6.71,12.14,8.69,18.78l25.01-9c-.04-.12-.07-.23-.1-.35-1.38-4.47-3.15-8.78-5.24-12.97-2.65-5.33-5.9-10.27-9.53-14.98-3.78-4.9-8.02-9.36-12.67-13.44-.67-.58-1.4-.86-2.29-.84-1.56.03-3.12-.02-4.68,0-.91.01-1.32-.36-1.29-1.28.03-1.02-.03-2.04,0-3.06.03-.79-.25-1.4-.91-1.83-1.45-.94-2.87-1.96-4.38-2.8-3.28-1.85-6.67-3.51-10.15-4.94-2.48-1.02-4.93-2.22-7.51-2.91-3.97-1.07-7.9-2.26-12-2.92-4.97-.8-9.96-1.33-14.96-1.47-5.68-.16-11.32.68-16.95,1.58-5.85.93-11.44,2.61-16.88,4.79-8.27,3.31-15.91,7.74-22.95,13.26-4.84,3.79-9.15,8.1-13.11,12.75-3.53,4.14-6.64,8.59-9.34,13.36-2.4,4.24-4.54,8.57-6.21,13.12-1.61,4.38-2.88,8.85-3.94,13.4-1.08,4.63-1.62,9.3-1.89,14.01-.23,4.07-.07,8.15-.05,12.23.04,7.74-.16,15.47-.09,23.21.02,1.94.02,3.87.03,5.81l26.62-9.58Z"/>
      <path class="st7" d="M121.46,117.07c0-1.45,0-2.89,0-4.34,0-1.14-.13-2.28-.16-3.41-.11-3.5.55-6.8,3-9.51,2.23-2.46,4.97-3.89,8.32-4.12,1.93-.13,3.93-.05,5.69.59,2.99,1.09,5.3,3.08,6.72,6.11.87,1.87,1.23,3.76,1.28,5.73l25.55-9.19c-.33-1.24-.72-2.47-1.14-3.68-1.7-4.9-4.4-9.29-7.95-13.1-4.99-5.37-10.95-9.18-17.96-11.39-1.62-.51-3.29-.59-4.9-1.05-3.36-.96-6.84-.82-10.19-.39-4.44.58-8.79,1.79-12.84,3.88-9.66,4.99-16.35,12.55-19.9,22.84-1.45,4.2-2.23,8.51-2.11,13,.15,5.52.02,11.04.02,16.56,0,.32,0,.67,0,1.03l26.58-9.56Z"/>
      <path class="st7" d="M180.52,30.62s10.39,6.38,16.43,12.87l-6.04,5.76-11.52-9.32,1.13-9.31Z"/>
    </g>
    <g>
      <path class="st9" d="M78.92,74.94c1.08-1.7,2.24-3.35,3.37-5.02,3.14-4.6,7.01-8.49,11.33-11.92,3.23-2.57,6.63-4.98,10.34-6.8,4.72-2.32,9.56-4.35,14.8-5.4,4.17-.84,8.29-1.67,12.56-1.61,3.12.04,6.28-.24,9.35.15,4.85.62,9.67,1.54,14.33,3.15,4.71,1.62,9.19,3.71,13.35,6.36l31.45-7.42c-2.19-2.34-4.5-4.57-6.93-6.7-.67-.58-1.4-.86-2.3-.84-1.56.03-3.12-.02-4.68,0-.91.01-1.32-.36-1.29-1.28.03-1.02-.03-2.04,0-3.06.03-.79-.25-1.4-.91-1.83-1.45-.94-2.87-1.96-4.38-2.8-3.28-1.85-6.67-3.51-10.15-4.94-2.48-1.02-4.93-2.22-7.51-2.91-3.97-1.07-7.9-2.26-12-2.92-4.97-.8-9.96-1.33-14.96-1.47-5.68-.16-11.32.68-16.95,1.58-5.85.93-11.44,2.61-16.88,4.79-8.27,3.31-15.91,7.74-22.95,13.26-4.84,3.79-9.15,8.1-13.11,12.75-3.53,4.14-6.64,8.59-9.34,13.36-2.4,4.24-4.54,8.57-6.21,13.12-.71,1.94-1.35,3.9-1.94,5.87l31.59-7.45Z"/>
      <path class="st9" d="M191.94,48.27l5.01-4.78c-6.03-6.49-16.43-12.87-16.43-12.87l-1.13,9.31,10.82,8.75,1.73-.41Z"/>
    </g>
    <path class="st1" d="M41.9,294.52c0-1.15.41-2.13,1.23-2.95s1.8-1.23,2.95-1.23,2.13.41,2.95,1.23c.82.82,1.23,1.8,1.23,2.95v12.05c3.5-2.62,7.53-3.94,12.09-3.94,5.66,0,10.48,2,14.47,5.98,3.99,3.99,5.98,8.81,5.98,14.47s-1.99,10.48-5.98,14.47c-3.99,3.99-8.81,5.98-14.47,5.98s-10.48-1.99-14.47-5.98c-3.94-3.93-5.93-8.69-5.98-14.26v-28.77ZM53.74,331.69c2.38,2.38,5.25,3.57,8.61,3.57s6.22-1.18,8.59-3.55c2.36-2.36,3.55-5.23,3.55-8.59s-1.18-6.23-3.55-8.61c-2.36-2.38-5.23-3.56-8.59-3.56s-6.23,1.19-8.61,3.56c-2.02,2.02-3.18,4.4-3.48,7.13v1.56c0,.24-.01.49-.04.74.16,3.01,1.34,5.59,3.53,7.75Z"/>
    <path class="st1" d="M116.57,311.94c-1.5-.68-3.15-1.03-4.96-1.03-3.36,0-6.23,1.18-8.61,3.55-2.38,2.36-3.57,5.23-3.57,8.59s1.19,6.23,3.57,8.61c2.38,2.38,5.25,3.57,8.61,3.57s6.19-1.17,8.57-3.53c.03-.03.05-.05.08-.08.79-.79,1.76-1.19,2.91-1.19s2.13.4,2.95,1.21c.82.81,1.23,1.78,1.23,2.93s-.41,2.13-1.23,2.95c-.03.03-.06.05-.08.08-3.96,3.96-8.77,5.94-14.43,5.94s-10.48-1.99-14.47-5.98c-3.99-3.99-5.98-8.81-5.98-14.47s1.99-10.48,5.98-14.47,8.81-5.98,14.47-5.98,10.46,1.98,14.43,5.94l-.04.04s.01.04.04.04c.79.79,1.19,1.76,1.19,2.91s-.4,2.08-1.19,2.87l-11.72,11.64c-.82.79-1.8,1.19-2.95,1.19s-2.17-.4-2.99-1.19c-.79-.82-1.19-1.82-1.19-2.99s.4-2.13,1.19-2.95l8.2-8.2Z"/>
    <path class="st1" d="M173.83,339.52c0,1.58-.41,2.65-1.23,3.2s-1.8.82-2.95.82-2.13-.27-2.95-.82-1.23-1.58-1.23-3.12c-3.5,2.62-7.53,3.94-12.09,3.94-5.66,0-10.48-1.99-14.47-5.98-3.99-3.99-5.98-8.81-5.98-14.47s1.99-10.48,5.98-14.47c3.99-3.99,8.81-5.98,14.47-5.98s10.48,2,14.47,5.98c3.93,3.94,5.93,8.69,5.98,14.26v16.64ZM161.98,314.48c-2.38-2.38-5.25-3.57-8.61-3.57s-6.22,1.18-8.59,3.55c-2.36,2.36-3.55,5.23-3.55,8.59s1.18,6.23,3.55,8.61c2.36,2.38,5.23,3.57,8.59,3.57s6.23-1.19,8.61-3.57c2.02-2.02,3.18-4.4,3.48-7.13v-1.56c0-.25.01-.49.04-.74-.16-3.01-1.34-5.59-3.52-7.75Z"/>
    <path class="st1" d="M184.89,302.47v-7.79c0-1.15.41-2.13,1.23-2.95s1.8-1.23,2.95-1.23,2.13.41,2.95,1.23c.82.82,1.23,1.8,1.23,2.95v7.79h4.55c1.15,0,2.13.41,2.95,1.23.82.82,1.23,1.8,1.23,2.95s-.41,2.13-1.23,2.95c-.82.82-1.8,1.23-2.95,1.23h-4.55v28.53c0,1.15-.41,2.13-1.23,2.95s-1.8,1.23-2.95,1.23-2.13-.41-2.95-1.23c-.82-.82-1.23-1.8-1.23-2.95v-28.53h-4.71c-1.15,0-2.13-.41-2.95-1.23-.82-.82-1.23-1.8-1.23-2.95s.41-2.13,1.23-2.95,1.8-1.23,2.95-1.23h4.71Z"/>
    <path class="st1" d="M216.5,291.73c.82.82,1.23,1.8,1.23,2.95v44.67c0,1.15-.41,2.13-1.23,2.95-.82.82-1.8,1.23-2.95,1.23s-2.13-.41-2.95-1.23c-.82-.82-1.23-1.8-1.23-2.95v-44.67c0-1.15.41-2.13,1.23-2.95.82-.82,1.8-1.23,2.95-1.23s2.13.41,2.95,1.23Z"/>
    <path class="st1" d="M229.99,298.54c-1.15,0-2.13-.41-2.95-1.23-.82-.82-1.23-1.8-1.23-2.95s.41-2.13,1.23-2.95,1.8-1.23,2.95-1.23,2.13.41,2.95,1.23,1.23,1.8,1.23,2.95-.41,2.13-1.23,2.95-1.8,1.23-2.95,1.23ZM229.99,343.54c-1.15,0-2.13-.41-2.95-1.23s-1.23-1.8-1.23-2.95v-32.79c0-1.15.41-2.13,1.23-2.95.82-.82,1.8-1.23,2.95-1.23s2.13.41,2.95,1.23c.82.82,1.23,1.8,1.23,2.95v32.79c0,1.15-.41,2.13-1.23,2.95s-1.8,1.23-2.95,1.23Z"/>
    <path class="st1" d="M251.95,302.47v-6.07c0-2.82,1-5.23,2.99-7.23,1.99-2.01,4.41-3.01,7.25-3.01,1.12,0,2.08.4,2.89,1.19.81.79,1.21,1.76,1.21,2.91s-.4,2.08-1.21,2.89-1.77,1.21-2.89,1.21c-.57,0-1.06.21-1.46.62s-.59.89-.59,1.43v6.07h4.71c1.15,0,2.13.41,2.95,1.23s1.23,1.8,1.23,2.95-.41,2.13-1.23,2.95c-.82.82-1.8,1.23-2.95,1.23h-4.55v28.53c0,1.15-.41,2.13-1.23,2.95s-1.8,1.23-2.95,1.23-2.13-.41-2.95-1.23c-.82-.82-1.23-1.8-1.23-2.95v-28.53h-4.71c-1.15,0-2.13-.41-2.95-1.23-.82-.82-1.23-1.8-1.23-2.95s.41-2.13,1.23-2.95,1.8-1.23,2.95-1.23h4.71Z"/>
    <path class="st1" d="M296.05,311.94c-1.5-.68-3.15-1.03-4.96-1.03-3.36,0-6.23,1.18-8.61,3.55-2.38,2.36-3.57,5.23-3.57,8.59s1.19,6.23,3.57,8.61c2.38,2.38,5.25,3.57,8.61,3.57s6.19-1.17,8.57-3.53c.03-.03.05-.05.08-.08.79-.79,1.76-1.19,2.91-1.19s2.13.4,2.95,1.21c.82.81,1.23,1.78,1.23,2.93s-.41,2.13-1.23,2.95c-.03.03-.06.05-.08.08-3.96,3.96-8.77,5.94-14.43,5.94s-10.48-1.99-14.47-5.98c-3.99-3.99-5.98-8.81-5.98-14.47s1.99-10.48,5.98-14.47,8.81-5.98,14.47-5.98,10.46,1.98,14.43,5.94l-.04.04s.01.04.04.04c.79.79,1.19,1.76,1.19,2.91s-.4,2.08-1.19,2.87l-11.72,11.64c-.82.79-1.8,1.19-2.95,1.19s-2.17-.4-2.99-1.19c-.79-.82-1.19-1.82-1.19-2.99s.4-2.13,1.19-2.95l8.2-8.2Z"/>
    <g class="st3">
      <path class="st0" d="M47.45,351.88c2.17,0,3.8.43,4.9,1.28s1.64,2.12,1.64,3.8-.52,2.97-1.57,3.83-2.6,1.29-4.67,1.29h-3.34v8.11h-1.7v-18.3h4.74ZM44.4,360.55h3.75c1.3,0,2.31-.31,3.01-.93.7-.62,1.05-1.51,1.05-2.67,0-1.22-.37-2.13-1.12-2.72-.75-.59-1.89-.89-3.42-.89h-3.27v7.2Z"/>
      <path class="st0" d="M57.76,370.18v-18.3h1.7v16.83h8.19v1.47h-9.89Z"/>
      <path class="st0" d="M69.02,370.18l5.73-18.3h2.28l5.73,18.3h-1.75l-1.83-6h-6.68l-1.83,6h-1.65ZM72.94,362.71h5.8l-2.88-9.65-2.92,9.65Z"/>
      <path class="st0" d="M88.55,370.18v-7.5l-5.61-10.8h1.79l4.62,8.78,4.69-8.78h1.79l-5.59,10.8v7.5h-1.7Z"/>
      <path class="st0" d="M106.46,370.18v-18.3h10.28v1.47h-8.59v6.41h6.31v1.47h-6.31v8.95h-1.7Z"/>
      <path class="st0" d="M124.85,351.88c2.17,0,3.8.42,4.9,1.25,1.1.83,1.65,2.08,1.65,3.73,0,1.24-.31,2.25-.92,3.05-.61.8-1.52,1.37-2.74,1.71l4.41,8.56h-1.92l-4.26-8.32h-4.52v8.32h-1.7v-18.3h5.09ZM125.08,353.35h-3.63v7.08h4.13c1.3,0,2.29-.31,2.99-.92.7-.61,1.05-1.49,1.05-2.63,0-1.2-.37-2.08-1.12-2.66-.75-.58-1.89-.87-3.42-.87Z"/>
      <path class="st0" d="M134.43,361.04c0-2.86.66-5.15,1.97-6.88,1.32-1.72,3.05-2.58,5.2-2.58s3.88.86,5.19,2.58c1.3,1.72,1.96,4.01,1.96,6.88s-.65,5.16-1.96,6.88c-1.3,1.72-3.03,2.58-5.19,2.58s-3.89-.86-5.2-2.58c-1.32-1.72-1.97-4.01-1.97-6.88ZM136.21,361.04c0,2.48.48,4.42,1.45,5.85.97,1.42,2.28,2.13,3.95,2.13s2.98-.71,3.95-2.13c.97-1.42,1.45-3.37,1.45-5.85s-.48-4.43-1.45-5.85-2.28-2.13-3.95-2.13-2.98.71-3.95,2.13-1.45,3.37-1.45,5.85Z"/>
      <path class="st0" d="M152.53,370.18v-18.3h3.02l5.01,15.62,5.05-15.62h3.01v18.3h-1.57v-16.57h-.37l-5.38,16.57h-1.44l-5.37-16.57h-.38v16.57h-1.57Z"/>
      <path class="st0" d="M184.69,370.18v-16.83h-5.42v-1.47h12.55v1.47h-5.42v16.83h-1.71Z"/>
      <path class="st0" d="M194.93,370.18v-18.3h1.72v7.98h9.58v-7.98h1.73v18.3h-1.73v-8.87h-9.58v8.87h-1.72Z"/>
      <path class="st0" d="M223.78,368.71v1.47h-10.88v-18.3h10.5v1.47h-8.8v6.41h6.37v1.47h-6.37v7.48h9.18Z"/>
      <path class="st0" d="M234.56,370.18v-18.3h1.72v7.98h9.58v-7.98h1.73v18.3h-1.73v-8.87h-9.58v8.87h-1.72Z"/>
      <path class="st0" d="M263.41,368.71v1.47h-10.88v-18.3h10.5v1.47h-8.8v6.41h6.37v1.47h-6.37v7.48h9.18Z"/>
      <path class="st0" d="M264.66,370.18l5.73-18.3h2.28l5.73,18.3h-1.75l-1.83-6h-6.68l-1.83,6h-1.65ZM268.58,362.71h5.8l-2.88-9.65-2.92,9.65Z"/>
      <path class="st0" d="M286.6,351.88c2.17,0,3.8.42,4.9,1.25,1.1.83,1.65,2.08,1.65,3.73,0,1.24-.3,2.25-.92,3.05-.61.8-1.52,1.37-2.73,1.71l4.41,8.56h-1.92l-4.26-8.32h-4.52v8.32h-1.7v-18.3h5.09ZM286.84,353.35h-3.63v7.08h4.13c1.3,0,2.29-.31,2.99-.92.7-.61,1.05-1.49,1.05-2.63,0-1.2-.37-2.08-1.12-2.66-.75-.58-1.89-.87-3.42-.87Z"/>
      <path class="st0" d="M300.97,370.18v-16.83h-5.42v-1.47h12.55v1.47h-5.42v16.83h-1.71Z"/>
    </g>
  </g>
</svg>