<?xml version="1.0" encoding="UTF-8"?>
<svg id="Layer_1" xmlns="http://www.w3.org/2000/svg" version="1.1" viewBox="0 0 808 315.57">
  <!-- Generator: Adobe Illustrator 30.4.0, SVG Export Plug-In . SVG Version: 2.1.4 Build 226)  -->
  <defs>
    <style>
      .st0 {
        fill: aqua;
      }

      .st1 {
        display: none;
        fill: #10048c;
      }

      .st2 {
        fill: #14cad3;
      }

      .st3 {
        fill: #01ffff;
      }

      .st4 {
        fill: #105bae;
      }

      .st5 {
        fill: #2392e7;
      }

      .st6 {
        fill: #04a5ce;
      }

      .st7 {
        fill: #4280ff;
      }

      .st8 {
        fill: #1ee5d5;
      }
    </style>
  </defs>
  <rect class="st1" x="-66" y="-45.78" width="500" height="500"/>
  <g>
    <path class="st3" d="M309.86,198.52c-.17-1.49-.45-2.97-.47-4.46-.07-5.49-1.27-10.78-2.64-16.06-1.34-5.18-3.29-10.11-5.5-14.97-3.85-8.47-9.08-16.03-15.27-22.91-6.17-6.86-13.42-12.46-21.35-17.17-4.02-2.39-8.21-4.45-12.57-6.14-3-1.17-6.05-2.23-9.18-3.04-4.41-1.14-8.87-1.98-13.36-2.65-2.82-.42-2.81-.48-3.16-3.26-.71-5.65-1.97-11.18-3.65-16.61-1.38-4.47-3.15-8.78-5.24-12.97-2.65-5.33-5.9-10.27-9.53-14.98-3.78-4.9-8.02-9.36-12.67-13.44-.67-.58-1.4-.86-2.3-.84-1.56.03-3.12-.02-4.68,0-.91.01-1.32-.36-1.29-1.28.03-1.02-.03-2.04,0-3.06.03-.79-.25-1.4-.91-1.83-1.45-.94-2.87-1.96-4.38-2.8-3.28-1.85-6.67-3.51-10.15-4.94-2.48-1.02-4.93-2.22-7.51-2.91-3.97-1.07-7.9-2.26-12-2.92-4.97-.8-9.96-1.33-14.96-1.47-5.68-.16-11.32.68-16.95,1.58-5.85.93-11.44,2.61-16.88,4.79-8.27,3.31-15.91,7.74-22.95,13.25-4.84,3.79-9.15,8.1-13.11,12.75-3.53,4.14-6.64,8.59-9.34,13.36-2.4,4.24-4.54,8.57-6.21,13.12-1.61,4.38-2.88,8.85-3.94,13.4-1.08,4.63-1.62,9.3-1.89,14.01-.23,4.07-.07,8.15-.05,12.23.04,7.74-.16,15.47-.09,23.21.08,8.52-.02,17.04-.03,25.55-.01,18.36-.07,76.54-.07,94.9,0,2.7-.12,5.39-.23,8.09-.07,1.7.18,1.86,1.84,1.9,1.32.03,2.64.03,3.96.03,7.03,0,14.07.01,21.11.01l.04-70.5h0c0-31.37.02-62.75,0-94.12,0-4.09.62-8.07,1.51-12.05,1.03-4.59,2.71-8.93,4.65-13.18,1.65-3.62,3.96-6.83,6.19-10.1,3.14-4.6,7.01-8.49,11.33-11.92,3.23-2.57,6.63-4.98,10.34-6.8,4.72-2.32,9.56-4.35,14.8-5.4,4.17-.84,8.29-1.67,12.56-1.61,3.12.04,6.28-.24,9.35.15,4.85.62,9.67,1.54,14.33,3.15,6.06,2.09,11.72,4.92,16.83,8.76,5.78,4.33,10.86,9.35,14.89,15.44,4.81,7.3,8.05,15.19,10,23.67,1.56,6.79.9,13.72,1.33,20.58.11,1.74-.29,3.57-.25,5.37.03,1.31.25,2.62.28,3.93.05,1.82,0,1.84,1.9,1.84,5.64,0,11.28-.03,16.92.03,2.63.03,5.29.06,7.89.43,5.88.82,11.62,2.28,17.12,4.54,7.17,2.95,13.51,7.29,19.12,12.57,4.59,4.32,8.47,9.31,11.47,14.89,3.47,6.46,6.06,13.2,7.23,20.53,1.01,6.33,1.19,12.63.47,18.96-.34,2.96-.86,5.93-1.64,8.8-1.02,3.74-2.42,7.36-4.11,10.89-3.64,7.61-8.52,14.22-14.81,19.87-4.54,4.08-9.56,7.39-15,10.08-4.18,2.07-8.57,3.58-13.14,4.61-4.69,1.06-9.42,1.65-14.23,1.65-28.09-.03-56.18-.04-84.26-.05h0c-18.37,0-36.73-.01-55.09-.02-10.92,0-21.85-.02-32.77-.02-2.15,0-2.2.05-2.21,2.23,0,3.36-.1,6.72.03,10.08.08,2.03,0,4.05.12,6.07.07,1.2.2,2.38-.03,3.57-.22,1.13-.18,2.28-.11,3.41.07,1.27.65,1.75,1.88,1.5.96-.19,1.91-.18,2.86-.18,56.96.04,113.91.08,170.87.11,4.92,0,9.83-.39,14.66-1.36,7.47-1.5,14.66-3.86,21.61-7.05,7.3-3.34,13.94-7.67,20.03-12.82,8.28-7.01,15.24-15.13,20.56-24.66,2.14-3.82,4.05-7.72,5.71-11.76,1.23-2.99,2.24-6.06,3.13-9.16,1.1-3.86,1.85-7.81,2.36-11.78.57-4.45.8-8.93.99-13.42.02-.41-.12-.83-.16-1.24Z"/>
    <path class="st3" d="M230.67,238.51c3.73-1.25,7.29-2.8,10.46-5.04,5.08-3.58,9.24-8.08,12.27-13.59,2.4-4.36,4.03-8.97,4.65-13.87.85-6.77-.14-13.39-2.66-19.71-1.04-2.6-2.55-5.01-4.18-7.3-2.64-3.74-5.85-6.92-9.59-9.61-6.69-4.8-14.16-7.3-22.33-7.33-23.36-.07-46.72-.07-70.09-.06v26.83c1.32,0,2.66-.01,3.99-.02,17.58-.06,35.17-.03,52.75,0,4.74,0,9.47.09,14.21.21,4.45.11,7.77,2.13,9.88,6.07,1.41,2.63,1.49,5.38,1.25,8.35-.38,4.79-5.14,9.35-9.95,9.85-1.56.16-3.11.23-4.67.23-25.14.05-50.28-.13-75.42.19-4.96.06-9.95-.12-14.92-.25-3.89-.1-7.77.14-11.66.07-6.51-.11-10.96-.1-17.48-.08v26.76c40.08.02,78.11.04,118.21.08,5.17,0,10.27-.11,15.27-1.78Z"/>
    <path class="st4" d="M173.11,105.4c-1.7-4.9-4.4-9.29-7.95-13.11-4.99-5.37-10.95-9.18-17.96-11.39-1.62-.51-3.29-.59-4.9-1.05-3.36-.96-6.84-.82-10.19-.39-4.44.58-8.79,1.79-12.84,3.88-9.66,4.99-16.35,12.55-19.9,22.84-1.45,4.2-2.23,8.51-2.11,13,.15,5.52.02,11.04.02,16.56-.02,17.04-.08,79.21-.09,96.25,0,1.75.09,1.76,1.86,1.76,6.9.01,13.8-.05,20.7.11,1.34.03,2.68.04,4.02.05l.05-83.05h.03c0-9.33,0-18.67.01-28,0-1.14-.13-2.28-.16-3.41-.11-3.5.55-6.8,3-9.51,2.23-2.46,4.97-3.89,8.32-4.12,1.93-.13,3.93-.05,5.69.59,2.99,1.09,5.3,3.08,6.72,6.11.95,2.03,1.31,4.08,1.31,6.25,0,5.34-.04,62.3-.05,67.64,0,2.21.12,2.36,2.32,2.36,7.44.01,14.88.02,22.33.01,1.97,0,1.99-.02,1.99-2.03.01-6-.03-63.62.06-69.62.06-4.09-.95-7.98-2.26-11.75Z"/>
    <path class="st4" d="M182.92,40.77s10.39,6.38,16.43,12.87l-6.04,5.76-11.52-9.32,1.13-9.31Z"/>
    <g>
      <path class="st8" d="M180.2,265.05c-14.92,0-29.85-.02-44.77-.03h0c-18.37,0-36.73-.01-55.09-.02-2.68,0-5.36,0-8.04,0l.03-55.48h0c0-31.37.02-62.75,0-94.12,0-4.09.62-8.07,1.51-12.05,1.03-4.59,2.71-8.93,4.65-13.18,1.65-3.62,3.96-6.83,6.19-10.1,3.14-4.6,7.01-8.49,11.33-11.92,3.23-2.57,6.63-4.98,10.34-6.8,4.72-2.32,9.56-4.35,14.8-5.4,4.17-.84,8.29-1.67,12.56-1.61,3.12.04,6.28-.24,9.35.15,4.85.62,9.67,1.54,14.33,3.15,6.06,2.09,11.72,4.92,16.83,8.76,5.78,4.33,10.86,9.35,14.89,15.44,4.81,7.3,8.05,15.2,10,23.67,1.56,6.79.9,13.72,1.33,20.58.11,1.74-.29,3.57-.25,5.37.03,1.31.25,2.62.28,3.93.05,1.82,0,1.84,1.9,1.84,5.64,0,11.28-.03,16.92.03,2.63.03,5.29.06,7.89.43,5.88.82,11.62,2.28,17.12,4.54,7.17,2.95,13.51,7.29,19.12,12.57,4.59,4.32,8.47,9.31,11.47,14.89,3.47,6.46,6.06,13.2,7.23,20.53.85,5.28,1.1,10.53.75,15.79l26.33-15.14c-.38-4.36-1.36-8.62-2.46-12.87-1.34-5.18-3.29-10.11-5.5-14.97-3.85-8.47-9.08-16.03-15.27-22.91-6.17-6.86-13.42-12.46-21.35-17.17-4.02-2.39-8.21-4.45-12.57-6.14-3-1.17-6.05-2.23-9.18-3.04-4.41-1.14-8.87-1.98-13.36-2.65-2.82-.42-2.81-.48-3.16-3.26-.71-5.65-1.97-11.18-3.65-16.61-1.38-4.47-3.15-8.78-5.24-12.97-2.65-5.33-5.9-10.27-9.53-14.98-3.78-4.9-8.02-9.36-12.67-13.44-.67-.58-1.4-.86-2.3-.84-1.56.03-3.12-.02-4.68,0-.91.01-1.32-.36-1.29-1.28.03-1.02-.03-2.04,0-3.06.03-.79-.25-1.4-.91-1.83-1.45-.94-2.87-1.96-4.38-2.8-3.28-1.85-6.67-3.51-10.15-4.94-2.48-1.02-4.93-2.22-7.51-2.91-3.97-1.07-7.9-2.26-12-2.92-4.97-.8-9.96-1.33-14.96-1.47-5.68-.16-11.32.68-16.95,1.58-5.85.93-11.44,2.61-16.88,4.79-8.27,3.31-15.91,7.74-22.95,13.26-4.84,3.79-9.15,8.1-13.11,12.75-3.53,4.14-6.64,8.59-9.34,13.36-2.4,4.24-4.54,8.57-6.21,13.12-1.61,4.38-2.88,8.85-3.94,13.4-1.08,4.63-1.62,9.3-1.89,14.01-.23,4.07-.07,8.15-.05,12.23.04,7.74-.16,15.47-.09,23.21.08,8.52-.02,17.04-.03,25.55-.01,17.03-.07,68.3-.07,90.29-.22.3-.24.84-.24,1.84,0,3.36-.1,6.72.03,10.08,0,.09,0,.18,0,.28,0,.17-.01.33-.02.5-.02.48,0,.83.05,1.1.01,1.4,0,2.8.08,4.19.07,1.2.2,2.38-.03,3.57-.22,1.13-.18,2.28-.11,3.41.07,1.27.65,1.75,1.88,1.5.96-.19,1.91-.18,2.86-.18,27.91.02,55.81.03,83.72.05l46.37-26.66Z"/>
      <path class="st8" d="M250.16,224.83c1.19-1.55,2.28-3.19,3.24-4.94,2.4-4.36,4.03-8.97,4.65-13.87.85-6.77-.14-13.39-2.66-19.71-1.04-2.6-2.55-5.01-4.18-7.3-2.64-3.74-5.85-6.92-9.59-9.61-6.69-4.8-14.16-7.3-22.33-7.33-23.36-.07-46.72-.07-70.09-.06v26.83c1.32,0,2.66-.01,3.99-.02,17.58-.06,35.17-.03,52.75,0,4.74,0,9.47.09,14.21.21,4.45.11,7.77,2.13,9.88,6.07,1.41,2.63,1.49,5.38,1.25,8.35-.38,4.79-5.14,9.35-9.95,9.85-1.56.16-3.11.23-4.67.23-25.14.05-50.28-.13-75.42.19-4.96.06-9.95-.12-14.92-.25-3.89-.1-7.77.14-11.66.07-6.51-.11-10.96-.1-17.48-.08v26.76c40.08.02,78.11.04,118.21.08,2.85,0,5.67-.04,8.47-.35l26.28-15.11Z"/>
      <path class="st8" d="M173.11,105.4c-1.7-4.9-4.4-9.29-7.95-13.11-4.99-5.37-10.95-9.18-17.96-11.39-1.62-.51-3.29-.59-4.9-1.05-3.36-.96-6.84-.82-10.19-.39-4.44.58-8.79,1.79-12.84,3.88-9.66,4.99-16.35,12.55-19.9,22.84-1.45,4.2-2.23,8.51-2.11,13,.15,5.52.02,11.04.02,16.56-.02,17.04-.08,79.21-.09,96.25,0,1.75.09,1.76,1.86,1.76,6.9.01,13.8-.05,20.7.11,1.34.03,2.68.04,4.02.05l.05-83.05h.03c0-9.33,0-18.67.01-28,0-1.14-.13-2.28-.16-3.41-.11-3.5.55-6.8,3-9.51,2.23-2.46,4.97-3.89,8.32-4.12,1.93-.13,3.93-.05,5.69.59,2.99,1.09,5.3,3.08,6.72,6.11.95,2.03,1.31,4.08,1.31,6.25,0,5.34-.04,62.3-.05,67.64,0,2.21.12,2.36,2.32,2.36,7.44.01,14.88.02,22.33.01,1.97,0,1.99-.02,1.99-2.03.01-6-.03-63.62.06-69.62.06-4.09-.95-7.98-2.26-11.75Z"/>
      <path class="st8" d="M182.92,40.77s10.39,6.38,16.43,12.87l-6.04,5.76-11.52-9.32,1.13-9.31Z"/>
    </g>
    <g>
      <path class="st2" d="M45.42,279.16c0,.74,0,1.48.02,2.22l28.49-16.38c-.55,0-1.1,0-1.64,0l.03-55.48h0c0-31.37.02-62.75,0-94.12,0-4.09.62-8.07,1.51-12.05,1.03-4.59,2.71-8.93,4.65-13.18,1.65-3.62,3.96-6.83,6.19-10.1,3.14-4.6,7.01-8.49,11.33-11.92,3.23-2.57,6.63-4.98,10.34-6.8,4.72-2.32,9.56-4.35,14.8-5.4,4.17-.84,8.29-1.67,12.56-1.61,3.12.04,6.28-.24,9.35.15,4.85.62,9.67,1.54,14.33,3.15,6.06,2.09,11.72,4.92,16.83,8.76,5.78,4.33,10.86,9.35,14.89,15.44,4.81,7.3,8.05,15.2,10,23.67,1.56,6.79.9,13.72,1.33,20.58.11,1.74-.29,3.57-.25,5.37.03,1.31.25,2.62.28,3.93.05,1.82,0,1.84,1.9,1.84,5.64,0,11.28-.03,16.92.03,2.63.03,5.29.06,7.89.43,5.88.82,11.62,2.28,17.12,4.54,7.17,2.95,13.51,7.29,19.12,12.57.27.26.54.52.8.79l23.46-13.49c-.57-.66-1.13-1.32-1.72-1.97-6.17-6.86-13.42-12.46-21.35-17.17-4.02-2.39-8.21-4.45-12.57-6.14-3-1.17-6.05-2.23-9.18-3.04-4.41-1.14-8.87-1.98-13.36-2.65-2.82-.42-2.81-.48-3.16-3.26-.71-5.65-1.97-11.18-3.65-16.61-1.38-4.47-3.15-8.78-5.24-12.97-2.65-5.33-5.9-10.27-9.53-14.98-3.78-4.9-8.02-9.36-12.67-13.44-.67-.58-1.4-.86-2.3-.84-1.56.03-3.12-.02-4.68,0-.91.01-1.32-.36-1.29-1.28.03-1.02-.03-2.04,0-3.06.03-.79-.25-1.4-.91-1.83-1.45-.94-2.87-1.96-4.38-2.8-3.28-1.85-6.67-3.51-10.15-4.94-2.48-1.02-4.93-2.22-7.51-2.91-3.97-1.07-7.9-2.26-12-2.92-4.97-.8-9.96-1.33-14.96-1.47-5.68-.16-11.32.68-16.95,1.58-5.85.93-11.44,2.61-16.88,4.79-8.27,3.31-15.91,7.74-22.95,13.26-4.84,3.79-9.15,8.1-13.11,12.75-3.53,4.14-6.64,8.59-9.34,13.36-2.4,4.24-4.54,8.57-6.21,13.12-1.61,4.38-2.88,8.85-3.94,13.4-1.08,4.63-1.62,9.3-1.89,14.01-.23,4.07-.07,8.15-.05,12.23.04,7.74-.16,15.47-.09,23.21.08,8.52-.02,17.04-.03,25.55-.01,17.03-.07,68.3-.07,90.29-.22.3-.24.84-.24,1.84,0,3.36-.1,6.72.03,10.08,0,.09,0,.18,0,.28,0,.17-.01.33-.02.5-.02.48,0,.83.05,1.1Z"/>
      <path class="st2" d="M153.2,188.8c17.58-.06,35.17-.03,52.75,0,.17,0,.33,0,.5,0l34.53-19.85c-6.52-4.51-13.78-6.88-21.69-6.9-23.36-.07-46.72-.07-70.09-.06v26.83c1.32,0,2.66-.01,3.99-.02Z"/>
      <path class="st2" d="M163.43,213.54c-7.39.03-14.78.07-22.18.17-4.96.06-9.95-.12-14.92-.25-3.89-.1-7.77.14-11.66.07-6.51-.11-10.96-.1-17.48-.08v26.76c6.66,0,13.26,0,19.83.01l46.4-26.68Z"/>
      <path class="st2" d="M173.11,105.4c-1.7-4.9-4.4-9.29-7.95-13.11-4.99-5.37-10.95-9.18-17.96-11.39-1.62-.51-3.29-.59-4.9-1.05-3.36-.96-6.84-.82-10.19-.39-4.44.58-8.79,1.79-12.84,3.88-9.66,4.99-16.35,12.55-19.9,22.84-1.45,4.2-2.23,8.51-2.11,13,.15,5.52.02,11.04.02,16.56-.02,17.04-.08,79.21-.09,96.25,0,1.75.09,1.76,1.86,1.76,6.9.01,13.8-.05,20.7.11,1.34.03,2.68.04,4.02.05l.05-83.05h.03c0-9.33,0-18.67.01-28,0-1.14-.13-2.28-.16-3.41-.11-3.5.55-6.8,3-9.51,2.23-2.46,4.97-3.89,8.32-4.12,1.93-.13,3.93-.05,5.69.59,2.99,1.09,5.3,3.08,6.72,6.11.95,2.03,1.31,4.08,1.31,6.25,0,5.34-.04,62.3-.05,67.64,0,2.21.12,2.36,2.32,2.36,7.44.01,14.88.02,22.33.01,1.97,0,1.99-.02,1.99-2.03.01-6-.03-63.62.06-69.62.06-4.09-.95-7.98-2.26-11.75Z"/>
      <path class="st2" d="M182.92,40.77s10.39,6.38,16.43,12.87l-6.04,5.76-11.52-9.32,1.13-9.31Z"/>
    </g>
    <g>
      <path class="st6" d="M72.33,192.09c0-25.57.02-51.13,0-76.7,0-4.09.62-8.07,1.51-12.05,1.03-4.59,2.71-8.93,4.65-13.18,1.65-3.62,3.96-6.83,6.19-10.1,3.14-4.6,7.01-8.49,11.33-11.92,3.23-2.57,6.63-4.98,10.34-6.8,4.72-2.32,9.56-4.35,14.8-5.4,4.17-.84,8.29-1.67,12.56-1.61,3.12.04,6.28-.24,9.35.15,4.85.62,9.67,1.54,14.33,3.15,6.06,2.09,11.72,4.92,16.83,8.76,5.78,4.33,10.86,9.35,14.89,15.44,4.81,7.3,8.05,15.19,10,23.67,1.56,6.79.9,13.72,1.33,20.58.11,1.74-.29,3.57-.25,5.37.03,1.31.25,2.62.28,3.93.05,1.82,0,1.84,1.9,1.84,5.64,0,11.28-.03,16.92.03,2.63.03,5.29.06,7.89.43,3.46.49,6.88,1.2,10.23,2.16l35.69-11.29c-2.72-2-5.55-3.86-8.48-5.59-4.02-2.39-8.21-4.45-12.57-6.14-3-1.17-6.05-2.23-9.18-3.04-4.41-1.14-8.87-1.98-13.36-2.65-2.82-.42-2.81-.48-3.16-3.25-.71-5.65-1.97-11.18-3.65-16.61-1.38-4.47-3.15-8.78-5.24-12.97-2.65-5.33-5.9-10.27-9.53-14.98-3.78-4.9-8.02-9.36-12.67-13.44-.67-.58-1.4-.86-2.3-.84-1.56.03-3.12-.02-4.68,0-.91.01-1.32-.36-1.29-1.28.03-1.02-.03-2.04,0-3.06.03-.79-.25-1.4-.91-1.83-1.45-.94-2.87-1.96-4.38-2.8-3.28-1.85-6.67-3.51-10.15-4.94-2.48-1.02-4.93-2.22-7.51-2.91-3.97-1.07-7.9-2.26-12-2.92-4.97-.8-9.96-1.33-14.96-1.47-5.68-.16-11.32.68-16.95,1.58-5.85.93-11.44,2.61-16.88,4.79-8.27,3.31-15.91,7.74-22.95,13.25-4.84,3.79-9.15,8.1-13.11,12.75-3.53,4.14-6.64,8.59-9.34,13.36-2.4,4.24-4.54,8.57-6.21,13.12-1.61,4.38-2.88,8.85-3.94,13.4-1.08,4.63-1.62,9.3-1.89,14.01-.23,4.07-.07,8.15-.05,12.23.04,7.74-.16,15.47-.09,23.21.08,8.52-.02,17.04-.03,25.55,0,5.56-.01,14.8-.02,25.46l26.69-8.45Z"/>
      <path class="st6" d="M167.42,161.99c-6.07,0-12.14,0-18.22,0v5.77s18.22-5.77,18.22-5.77Z"/>
      <path class="st6" d="M123.8,175.8v-24.92s.04,0,.04,0c0-9.33,0-18.67.01-28,0-1.14-.13-2.28-.16-3.41-.11-3.5.55-6.8,3-9.51,2.23-2.46,4.97-3.89,8.32-4.12,1.93-.13,3.93-.05,5.69.59,2.99,1.09,5.3,3.08,6.72,6.11.95,2.03,1.31,4.08,1.31,6.25,0,3.57-.01,30.26-.03,49.13l26.62-8.43c0-18.06,0-38.87.06-42.34.06-4.09-.95-7.98-2.26-11.75-1.7-4.9-4.4-9.29-7.95-13.11-4.99-5.37-10.95-9.18-17.96-11.39-1.62-.51-3.29-.59-4.9-1.05-3.36-.96-6.84-.82-10.19-.39-4.44.58-8.79,1.79-12.84,3.88-9.66,4.99-16.35,12.55-19.9,22.84-1.45,4.2-2.23,8.51-2.11,13,.15,5.52.02,11.04.02,16.56-.01,8.57-.03,28.55-.05,48.46l26.57-8.41Z"/>
      <path class="st6" d="M182.92,40.77s10.39,6.38,16.43,12.87l-6.04,5.76-11.52-9.32,1.13-9.31Z"/>
    </g>
    <g>
      <path class="st5" d="M72.33,145.75c0-10.12,0-20.24,0-30.36,0-4.09.62-8.07,1.51-12.05,1.03-4.59,2.71-8.93,4.65-13.18,1.65-3.62,3.96-6.83,6.19-10.1,3.14-4.6,7.01-8.49,11.33-11.92,3.23-2.57,6.63-4.98,10.34-6.8,4.72-2.32,9.56-4.35,14.8-5.4,4.17-.84,8.29-1.67,12.56-1.61,3.12.04,6.28-.24,9.35.15,4.85.62,9.67,1.54,14.33,3.15,6.06,2.09,11.72,4.92,16.83,8.76,5.78,4.33,10.86,9.35,14.89,15.44,3.87,5.87,6.71,12.14,8.69,18.78l25.01-9c-.04-.12-.07-.23-.1-.35-1.38-4.47-3.15-8.78-5.24-12.97-2.65-5.33-5.9-10.27-9.53-14.98-3.78-4.9-8.02-9.36-12.67-13.44-.67-.58-1.4-.86-2.29-.84-1.56.03-3.12-.02-4.68,0-.91.01-1.32-.36-1.29-1.28.03-1.02-.03-2.04,0-3.06.03-.79-.25-1.4-.91-1.83-1.45-.94-2.87-1.96-4.38-2.8-3.28-1.85-6.67-3.51-10.15-4.94-2.48-1.02-4.93-2.22-7.51-2.91-3.97-1.07-7.9-2.26-12-2.92-4.97-.8-9.96-1.33-14.96-1.47-5.68-.16-11.32.68-16.95,1.58-5.85.93-11.44,2.61-16.88,4.79-8.27,3.31-15.91,7.74-22.95,13.26-4.84,3.79-9.15,8.1-13.11,12.75-3.53,4.14-6.64,8.59-9.34,13.36-2.4,4.24-4.54,8.57-6.21,13.12-1.61,4.38-2.88,8.85-3.94,13.4-1.08,4.63-1.62,9.3-1.89,14.01-.23,4.07-.07,8.15-.05,12.23.04,7.74-.16,15.47-.09,23.21.02,1.94.02,3.87.03,5.81l26.62-9.58Z"/>
      <path class="st5" d="M123.85,127.22c0-1.45,0-2.89,0-4.34,0-1.14-.13-2.28-.16-3.41-.11-3.5.55-6.8,3-9.51,2.23-2.46,4.97-3.89,8.32-4.12,1.93-.13,3.93-.05,5.69.59,2.99,1.09,5.3,3.08,6.72,6.11.87,1.87,1.23,3.76,1.28,5.73l25.55-9.19c-.33-1.24-.72-2.47-1.14-3.68-1.7-4.9-4.4-9.29-7.95-13.1-4.99-5.37-10.95-9.18-17.96-11.39-1.62-.51-3.29-.59-4.9-1.05-3.36-.96-6.84-.82-10.19-.39-4.44.58-8.79,1.79-12.84,3.88-9.66,4.99-16.35,12.55-19.9,22.84-1.45,4.2-2.23,8.51-2.11,13,.15,5.52.02,11.04.02,16.56,0,.32,0,.67,0,1.03l26.58-9.56Z"/>
      <path class="st5" d="M182.92,40.77s10.39,6.38,16.43,12.87l-6.04,5.76-11.52-9.32,1.13-9.31Z"/>
    </g>
    <g>
      <path class="st7" d="M81.31,85.08c1.08-1.7,2.24-3.35,3.37-5.02,3.14-4.6,7.01-8.49,11.33-11.92,3.23-2.57,6.63-4.98,10.34-6.8,4.72-2.32,9.56-4.35,14.8-5.4,4.17-.84,8.29-1.67,12.56-1.61,3.12.04,6.28-.24,9.35.15,4.85.62,9.67,1.54,14.33,3.15,4.71,1.62,9.19,3.71,13.35,6.36l31.45-7.42c-2.19-2.34-4.5-4.57-6.93-6.7-.67-.58-1.4-.86-2.3-.84-1.56.03-3.12-.02-4.68,0-.91.01-1.32-.36-1.29-1.28.03-1.02-.03-2.04,0-3.06.03-.79-.25-1.4-.91-1.83-1.45-.94-2.87-1.96-4.38-2.8-3.28-1.85-6.67-3.51-10.15-4.94-2.48-1.02-4.93-2.22-7.51-2.91-3.97-1.07-7.9-2.26-12-2.92-4.97-.8-9.96-1.33-14.96-1.47-5.68-.16-11.32.68-16.95,1.58-5.85.93-11.44,2.61-16.88,4.79-8.27,3.31-15.91,7.74-22.95,13.26-4.84,3.79-9.15,8.1-13.11,12.75-3.53,4.14-6.64,8.59-9.34,13.36-2.4,4.24-4.54,8.57-6.21,13.12-.71,1.94-1.35,3.9-1.94,5.87l31.59-7.45Z"/>
      <path class="st7" d="M194.33,58.42l5.01-4.78c-6.03-6.49-16.43-12.87-16.43-12.87l-1.13,9.31,10.82,8.75,1.73-.41Z"/>
    </g>
    <g>
      <g>
        <path class="st0" d="M326.3,90.72c0-1.98.69-3.68,2.07-5.09,1.38-1.41,3.03-2.12,4.96-2.12s3.58.71,4.96,2.12c1.38,1.41,2.07,3.11,2.07,5.09v20.78c5.88-4.52,12.66-6.79,20.33-6.79,9.51,0,17.62,3.44,24.33,10.32,6.71,6.88,10.06,15.2,10.06,24.95s-3.35,18.07-10.06,24.95c-6.71,6.88-14.82,10.32-24.33,10.32s-17.62-3.44-24.33-10.32c-6.62-6.79-9.97-14.99-10.06-24.6v-49.63ZM346.22,154.84c4,4.1,8.82,6.15,14.47,6.15s10.46-2.04,14.44-6.12c3.97-4.07,5.96-9.01,5.96-14.81s-1.99-10.75-5.96-14.85c-3.97-4.1-8.79-6.15-14.44-6.15s-10.48,2.05-14.47,6.15c-3.4,3.49-5.35,7.59-5.86,12.3v2.69c0,.42-.02.85-.07,1.27.28,5.19,2.25,9.64,5.93,13.36Z"/>
        <path class="st0" d="M451.87,120.77c-2.53-1.18-5.31-1.77-8.34-1.77-5.65,0-10.48,2.04-14.47,6.12-4,4.08-6,9.01-6,14.81s2,10.75,6,14.85c4,4.1,8.82,6.15,14.47,6.15s10.41-2.03,14.4-6.08c.05-.05.09-.09.14-.14,1.33-1.37,2.96-2.05,4.89-2.05s3.58.7,4.96,2.09c1.38,1.39,2.07,3.07,2.07,5.05s-.69,3.68-2.07,5.09c-.05.05-.09.09-.14.14-6.66,6.84-14.75,10.25-24.26,10.25s-17.62-3.44-24.33-10.32c-6.71-6.88-10.06-15.2-10.06-24.95s3.35-18.07,10.06-24.95c6.71-6.88,14.82-10.32,24.33-10.32s17.6,3.42,24.26,10.25l-.07.07s.02.07.07.07c1.33,1.37,2,3.04,2,5.02s-.67,3.58-2,4.95l-19.71,20.08c-1.38,1.37-3.03,2.05-4.96,2.05s-3.65-.68-5.03-2.05c-1.33-1.41-2-3.13-2-5.16s.67-3.68,2-5.09l13.78-14.14Z"/>
        <path class="st0" d="M548.15,168.34c0,2.73-.69,4.57-2.07,5.51-1.38.94-3.03,1.41-4.96,1.41s-3.58-.47-4.96-1.41c-1.38-.94-2.07-2.73-2.07-5.37-5.88,4.52-12.66,6.79-20.33,6.79-9.51,0-17.62-3.44-24.33-10.32-6.71-6.88-10.06-15.2-10.06-24.95s3.35-18.07,10.06-24.95c6.71-6.88,14.82-10.32,24.33-10.32s17.62,3.44,24.33,10.32c6.62,6.79,9.97,14.99,10.06,24.6v28.7ZM528.24,125.15c-4-4.1-8.82-6.15-14.47-6.15s-10.47,2.04-14.44,6.12c-3.98,4.08-5.96,9.01-5.96,14.81s1.99,10.75,5.96,14.85c3.97,4.1,8.79,6.15,14.44,6.15s10.48-2.05,14.47-6.15c3.4-3.49,5.35-7.59,5.86-12.3v-2.68c0-.42.02-.85.07-1.27-.28-5.18-2.25-9.64-5.93-13.36Z"/>
        <path class="st0" d="M566.76,104.44v-13.43c0-1.98.69-3.68,2.07-5.09s3.03-2.12,4.96-2.12,3.58.71,4.96,2.12c1.38,1.41,2.07,3.11,2.07,5.09v13.43h7.65c1.93,0,3.58.71,4.96,2.12,1.38,1.41,2.07,3.11,2.07,5.09s-.69,3.68-2.07,5.09c-1.38,1.41-3.03,2.12-4.96,2.12h-7.65v49.2c0,1.98-.69,3.68-2.07,5.09-1.38,1.41-3.03,2.12-4.96,2.12s-3.58-.71-4.96-2.12c-1.38-1.41-2.07-3.11-2.07-5.09v-49.2h-7.93c-1.93,0-3.58-.71-4.96-2.12-1.38-1.42-2.07-3.11-2.07-5.09s.69-3.68,2.07-5.09c1.38-1.41,3.03-2.12,4.96-2.12h7.93Z"/>
        <path class="st0" d="M619.91,85.92c1.38,1.41,2.07,3.11,2.07,5.09v77.05c0,1.98-.69,3.68-2.07,5.09-1.38,1.41-3.03,2.12-4.96,2.12s-3.58-.71-4.96-2.12c-1.38-1.41-2.07-3.11-2.07-5.09v-77.05c0-1.98.69-3.68,2.07-5.09,1.38-1.42,3.03-2.12,4.96-2.12s3.58.71,4.96,2.12Z"/>
        <path class="st0" d="M642.59,97.65c-1.93,0-3.58-.71-4.96-2.12-1.38-1.41-2.07-3.11-2.07-5.09s.69-3.68,2.07-5.09c1.38-1.41,3.03-2.12,4.96-2.12s3.58.71,4.96,2.12c1.38,1.41,2.07,3.11,2.07,5.09s-.69,3.68-2.07,5.09c-1.38,1.41-3.03,2.12-4.96,2.12ZM642.59,175.27c-1.93,0-3.58-.71-4.96-2.12-1.38-1.41-2.07-3.11-2.07-5.09v-56.55c0-1.98.69-3.68,2.07-5.09,1.38-1.42,3.03-2.12,4.96-2.12s3.58.71,4.96,2.12c1.38,1.41,2.07,3.11,2.07,5.09v56.55c0,1.98-.69,3.68-2.07,5.09s-3.03,2.12-4.96,2.12Z"/>
        <path class="st0" d="M679.53,104.44v-10.46c0-4.86,1.68-9.01,5.03-12.48,3.35-3.46,7.42-5.19,12.2-5.19,1.88,0,3.5.68,4.86,2.05,1.35,1.37,2.03,3.04,2.03,5.02s-.68,3.59-2.03,4.98c-1.36,1.39-2.98,2.09-4.86,2.09-.96,0-1.78.35-2.45,1.06-.67.71-1,1.53-1,2.47v10.46h7.93c1.93,0,3.58.71,4.96,2.12,1.38,1.41,2.07,3.11,2.07,5.09s-.69,3.68-2.07,5.09c-1.38,1.41-3.03,2.12-4.96,2.12h-7.65v49.2c0,1.98-.69,3.68-2.07,5.09-1.38,1.41-3.03,2.12-4.96,2.12s-3.58-.71-4.96-2.12c-1.38-1.41-2.07-3.11-2.07-5.09v-49.2h-7.93c-1.93,0-3.58-.71-4.96-2.12-1.38-1.42-2.07-3.11-2.07-5.09s.69-3.68,2.07-5.09,3.03-2.12,4.96-2.12h7.93Z"/>
        <path class="st0" d="M753.69,120.77c-2.53-1.18-5.31-1.77-8.34-1.77-5.65,0-10.48,2.04-14.47,6.12-4,4.08-6,9.01-6,14.81s2,10.75,6,14.85c4,4.1,8.82,6.15,14.47,6.15s10.41-2.03,14.4-6.08c.05-.05.09-.09.14-.14,1.33-1.37,2.96-2.05,4.89-2.05s3.58.7,4.96,2.09c1.38,1.39,2.07,3.07,2.07,5.05s-.69,3.68-2.07,5.09c-.05.05-.09.09-.14.14-6.66,6.84-14.75,10.25-24.26,10.25s-17.62-3.44-24.33-10.32c-6.71-6.88-10.06-15.2-10.06-24.95s3.35-18.07,10.06-24.95c6.71-6.88,14.82-10.32,24.33-10.32s17.6,3.42,24.26,10.25l-.07.07s.02.07.07.07c1.33,1.37,2,3.04,2,5.02s-.67,3.58-2,4.95l-19.71,20.08c-1.38,1.37-3.03,2.05-4.96,2.05s-3.65-.68-5.03-2.05c-1.33-1.41-2-3.13-2-5.16s.67-3.68,2-5.09l13.78-14.14Z"/>
      </g>
      <g>
        <path class="st0" d="M336.57,192.29c3.65,0,6.39,1.06,8.23,3.17,1.84,2.11,2.76,5.27,2.76,9.46s-.88,7.39-2.64,9.54-4.38,3.22-7.85,3.22h-5.62v20.18h-2.85v-45.57h7.97ZM331.45,213.88h6.31c2.19,0,3.88-.78,5.06-2.33,1.18-1.55,1.77-3.76,1.77-6.64,0-3.04-.63-5.29-1.88-6.76-1.26-1.47-3.17-2.2-5.75-2.2h-5.49v17.93Z"/>
        <path class="st0" d="M353.9,237.85v-45.57h2.85v41.9h13.78v3.67h-16.63Z"/>
        <path class="st0" d="M372.84,237.85l9.64-45.57h3.83l9.64,45.57h-2.93l-3.08-14.94h-11.24l-3.08,14.94h-2.77ZM379.44,219.24h9.76l-4.85-24.03-4.91,24.03Z"/>
        <path class="st0" d="M405.68,237.85v-18.67l-9.43-26.9h3.02l7.76,21.84,7.89-21.84h3.02l-9.41,26.9v18.67h-2.85Z"/>
        <path class="st0" d="M435.8,237.85v-45.57h17.29v3.67h-14.44v15.96h10.61v3.67h-10.61v22.27h-2.85Z"/>
        <path class="st0" d="M466.73,192.29c3.65,0,6.4,1.04,8.24,3.11,1.85,2.08,2.77,5.17,2.77,9.27,0,3.08-.51,5.61-1.54,7.59-1.03,1.98-2.56,3.4-4.6,4.27l7.41,21.32h-3.23l-7.16-20.7h-7.6v20.7h-2.85v-45.57h8.55ZM467.12,195.95h-6.1v17.62h6.95c2.18,0,3.85-.76,5.03-2.29,1.17-1.53,1.76-3.71,1.76-6.55,0-2.98-.63-5.19-1.88-6.62-1.26-1.44-3.17-2.16-5.75-2.16Z"/>
        <path class="st0" d="M482.83,215.09c0-7.13,1.11-12.83,3.32-17.11,2.21-4.28,5.13-6.42,8.75-6.42s6.53,2.14,8.72,6.42c2.19,4.28,3.29,9.99,3.29,17.11s-1.1,12.83-3.29,17.11c-2.19,4.28-5.1,6.42-8.72,6.42s-6.54-2.14-8.75-6.42c-2.21-4.28-3.32-9.99-3.32-17.11ZM485.83,215.09c0,6.16.81,11.01,2.44,14.56,1.62,3.54,3.84,5.31,6.64,5.31s5.02-1.77,6.64-5.31c1.62-3.54,2.43-8.4,2.43-14.56s-.81-11.04-2.43-14.57-3.84-5.3-6.64-5.3-5.02,1.77-6.64,5.3c-1.62,3.53-2.44,8.39-2.44,14.57Z"/>
        <path class="st0" d="M513.28,237.85v-45.57h5.08l8.43,38.88,8.49-38.88h5.06v45.57h-2.64v-41.25h-.62l-9.05,41.25h-2.41l-9.03-41.25h-.64v41.25h-2.64Z"/>
        <path class="st0" d="M567.35,237.85v-41.9h-9.12v-3.67h21.1v3.67h-9.12v41.9h-2.87Z"/>
        <path class="st0" d="M584.58,237.85v-45.57h2.89v19.87h16.11v-19.87h2.91v45.57h-2.91v-22.09h-16.11v22.09h-2.89Z"/>
        <path class="st0" d="M633.1,234.19v3.67h-18.29v-45.57h17.65v3.67h-14.8v15.96h10.71v3.67h-10.71v18.61h15.44Z"/>
        <path class="st0" d="M651.23,237.85v-45.57h2.89v19.87h16.11v-19.87h2.91v45.57h-2.91v-22.09h-16.11v22.09h-2.89Z"/>
        <path class="st0" d="M699.74,234.19v3.67h-18.29v-45.57h17.65v3.67h-14.8v15.96h10.71v3.67h-10.71v18.61h15.44Z"/>
        <path class="st0" d="M701.84,237.85l9.64-45.57h3.83l9.64,45.57h-2.93l-3.08-14.94h-11.24l-3.08,14.94h-2.77ZM708.44,219.24h9.76l-4.85-24.03-4.91,24.03Z"/>
        <path class="st0" d="M738.74,192.29c3.65,0,6.4,1.04,8.24,3.11,1.84,2.08,2.77,5.17,2.77,9.27,0,3.08-.51,5.61-1.54,7.59-1.03,1.98-2.56,3.4-4.6,4.27l7.41,21.32h-3.23l-7.16-20.7h-7.6v20.7h-2.85v-45.57h8.55ZM739.14,195.95h-6.1v17.62h6.95c2.18,0,3.85-.76,5.03-2.29,1.17-1.53,1.76-3.71,1.76-6.55,0-2.98-.63-5.19-1.88-6.62-1.26-1.44-3.17-2.16-5.75-2.16Z"/>
        <path class="st0" d="M762.9,237.85v-41.9h-9.12v-3.67h21.1v3.67h-9.12v41.9h-2.87Z"/>
      </g>
    </g>
  </g>
</svg>